<?xml version="1.0" encoding="iso-8859-1"?>
<!-- Generator: Adobe Illustrator 16.0.0, SVG Export Plug-In . SVG Version: 6.00 Build 0)  -->
<!DOCTYPE svg PUBLIC "-//W3C//DTD SVG 1.1//EN" "http://www.w3.org/Graphics/SVG/1.1/DTD/svg11.dtd">
<svg version="1.1" id="Capa_1" xmlns="http://www.w3.org/2000/svg" xmlns:xlink="http://www.w3.org/1999/xlink" x="0px" y="0px"
	 width="368.102px" height="368.102px" viewBox="0 0 368.102 368.102" style="enable-background:new 0 0 368.102 368.102;"
	 xml:space="preserve">
<g>
	<g>
		<path d="M339.449,229.017c-21.185,1.288-49.052,22.478-75.924,34.649c-32.94,14.899-84.216,2.905-84.224,2.905
			c7.903-3.691,40.051-11.351,46.528-14.208c34.411-15.125,31.49-46.69,15.101-46.425c-21.647,0.347-34.36,5.68-77.565,11.569
			c-32.747,4.455-71.477,2.826-90.054,9.919c-26.223,10.018-68.458,77.39-68.458,77.39l65.31,63.285
			c0,0,40.426-39.816,60.096-39.816c44.82,0,46.632-0.6,88.25-2.846c17.701-0.966,21.397-1.674,31.523-5.104
			c53.948-18.241,111.874-66.812,112.941-72.649C365.444,234.154,350.639,228.321,339.449,229.017z"/>
		<path d="M224.103,102.866c-1.614,0-2.928,1.3-2.928,2.917v74.374c0,1.616,1.313,2.912,2.928,2.912h26.652
			c1.616,0,2.932-1.296,2.932-2.912v-74.374c0-1.618-1.315-2.917-2.932-2.917H224.103L224.103,102.866z"/>
		<path d="M273.191,69.057v111.101c0,1.616,1.31,2.912,2.928,2.912h26.659c1.617,0,2.926-1.296,2.926-2.912V69.057
			c0-0.778-0.311-1.529-0.858-2.078c-0.55-0.548-1.292-0.854-2.067-0.854l-26.659,0.001
			C274.501,66.126,273.191,67.44,273.191,69.057z"/>
		<path d="M172.08,76.848c-1.618,0-2.926,1.313-2.926,2.933v100.377c0,1.616,1.308,2.912,2.926,2.912h26.661
			c1.617,0,2.924-1.296,2.924-2.912V79.781c0-1.619-1.307-2.933-2.924-2.933H172.08z"/>
		<path d="M120.061,108.072c-1.616,0-2.922,1.295-2.922,2.912v69.174c0,1.616,1.306,2.912,2.922,2.912h26.66
			c1.616,0,2.924-1.296,2.924-2.912v-69.174c0-1.617-1.308-2.912-2.924-2.912H120.061z"/>
		<path d="M126.537,98.234c0.771,0.906,1.874,1.38,2.981,1.38c0.891,0,1.791-0.303,2.517-0.935l53.278-45.038l46.735,35.749
			c1.637,1.263,3.961,1.022,5.315-0.544l43.169-49.815l6.047,5.235c1.052,0.904,2.518,1.185,3.83,0.741
			c1.315-0.46,2.292-1.581,2.559-2.95l7.204-37.412c0.261-1.368-0.224-2.778-1.272-3.696c-1.053-0.905-2.521-1.186-3.831-0.742
			l-36.006,12.465c-1.323,0.463-2.299,1.584-2.56,2.953c-0.264,1.369,0.221,2.771,1.275,3.678l6.042,5.252l-31.949,36.877
			l-44.76-34.247c-1.455-1.112-3.492-1.066-4.889,0.131l-64.456,54.479c-0.795,0.679-1.29,1.622-1.374,2.659
			c-0.083,1.035,0.248,2.062,0.911,2.855L126.537,98.234z"/>
	</g>
</g>
<g>
</g>
<g>
</g>
<g>
</g>
<g>
</g>
<g>
</g>
<g>
</g>
<g>
</g>
<g>
</g>
<g>
</g>
<g>
</g>
<g>
</g>
<g>
</g>
<g>
</g>
<g>
</g>
<g>
</g>
</svg>
